@startuml alternative5

skinparam sequenceMessageAlign center
skinparam Shadowing false
skinparam componentStyle uml2
skinparam packageStyle rectangle

component "X Concern Frontend" as FRONT
component "X Concern Backend" as BACK
component "X Concern Database" as DB
component "Message Broker" as MB
component "X Concern Flow" as FLOW
component "Event Store" as SHAR

interface "Message\nBroker API" as MB_API
interface "X Concern\nDatabase API" as DB_API
interface "X Concern\nBackend API" as BACK_API
interface "X Concern UI" as FRONT_API
interface "Event Store API" as SHAR_API

SHAR -- SHAR_API
MB -- MB_API
DB_API - DB
BACK_API -- BACK
FRONT - FRONT_API

BACK_API )- FRONT
BACK --( DB_API
SHAR_API )- BACK
FLOW -( SHAR_API
MB_API )- FLOW

@enduml
